<?xml version="1.0" encoding="UTF-8"?>
<svg width="165px" height="60px" viewBox="0 0 165 60" version="1.1" xmlns="http://www.w3.org/2000/svg" xmlns:xlink="http://www.w3.org/1999/xlink">
    <title>Artboard</title>
    <g id="Artboard" stroke="none" stroke-width="1" fill="none" fill-rule="evenodd">
        <g id="Amazon_logo" transform="translate(6, 7)" fill="#FFFFFF" fill-rule="nonzero">
            <path d="M22.7971513,29.5215912 C34.232355,36.1594679 48.3715234,40.1528249 62.9768864,40.1528249 C72.8270089,40.1528249 83.6628175,38.1195984 93.6261661,33.900331 C95.1313252,33.262454 96.3900628,34.8837189 94.9182052,35.9734193 C86.0271174,42.5116289 73.1400283,46 62.0444845,46 C46.4867423,46 32.4807821,40.2591373 21.8847318,30.7109637 C21.0522341,29.960129 21.7981491,28.9368768 22.7971513,29.5215912 Z M102.410699,28.8704286 C103.383053,30.0730892 102.157619,38.411962 97.3824017,42.3920233 C96.6498033,43.003319 95.9505037,42.6777415 96.2768471,41.8671065 C97.3491028,39.1960106 99.7533623,33.2093016 98.6145038,31.7541519 C97.4823009,30.3056475 91.1020301,31.0697678 88.2382342,31.4086385 C87.3657718,31.5149509 87.2325763,30.7574759 88.0184509,30.2126206 C93.1000269,26.6445158 101.43834,27.6744159 102.410699,28.8704286 Z M88.4380352,5.02325454 L88.4380352,1.55481682 C88.4380352,1.02990007 88.8376345,0.677741315 89.3171533,0.677741315 L104.881551,0.677741315 C105.381055,0.677741315 105.780654,1.03654539 105.780654,1.55481682 L105.780654,4.52491653 C105.773999,5.02325454 105.354414,5.67441711 104.608492,6.70431719 L96.5432433,18.1926904 C99.5402423,18.1196046 102.703738,18.5647826 105.421015,20.0930232 C106.033734,20.4385367 106.200233,20.94352 106.246854,21.4418631 L106.246854,25.142859 C106.246854,25.6478423 105.687413,26.2391996 105.101335,25.9335555 C100.312798,23.4285698 93.9525069,23.1561447 88.6578134,25.9601343 C88.1183552,26.2524928 87.5522563,25.6677758 87.5522563,25.1627924 L87.5522563,21.6478426 C87.5522563,21.083059 87.558912,20.1195994 88.1250109,19.2624573 L97.4689818,5.89368726 L89.3371331,5.89368726 C88.8376345,5.89368726 88.4380352,5.54153103 88.4380352,5.02325454 M31.6615984,26.6644492 L26.9263456,26.6644492 C26.47347,26.6312303 26.1138278,26.2923596 26.0805264,25.8604621 L26.0805264,1.61462215 C26.0805264,1.12957224 26.4867865,0.74418689 26.9929459,0.74418689 L31.4085188,0.74418689 C31.8680627,0.764107636 32.2343581,1.11627907 32.2676621,1.55481682 L32.2676621,4.72425578 L32.3542423,4.72425578 C33.5064199,1.66112923 35.6709137,0.232558245 38.5879934,0.232558245 C41.5516885,0.232558245 43.4031656,1.66112923 44.7351643,4.72425578 C45.8806837,1.66112923 48.4847391,0.232558245 51.2752789,0.232558245 C53.2599567,0.232558245 55.4311139,1.04983349 56.7564518,2.88372071 C58.2549501,4.92358744 57.9485891,7.88704183 57.9485891,10.4850519 L57.9419334,25.7873763 C57.9419334,26.2724262 57.5356732,26.6644492 57.0295139,26.6644492 L52.3009167,26.6644492 C51.8280613,26.6312303 51.4484418,26.2524928 51.4484418,25.7873763 L51.4484418,12.9368776 C51.4484418,11.9136229 51.5416777,9.36212751 51.3152412,8.39202516 C50.9622623,6.76412251 49.9033231,6.30564627 48.5313621,6.30564627 C47.3858427,6.30564627 46.1870447,7.06976658 45.7008651,8.2923606 C45.2146856,9.51495208 45.2613061,11.5614591 45.2613061,12.9368776 L45.2613061,25.7873763 C45.2613061,26.2724262 44.8550459,26.6644492 44.3488866,26.6644492 L39.6202945,26.6644492 C39.1407758,26.6312303 38.7678145,26.2524928 38.7678145,25.7873763 L38.7611537,12.9368776 C38.7611537,10.2325582 39.2073685,6.25249133 35.8440765,6.25249133 C32.4408173,6.25249133 32.574018,10.1328881 32.574018,12.9368776 L32.574018,25.7873763 C32.574018,26.2724262 32.1677578,26.6644492 31.6615984,26.6644492 M119.180558,0.232558245 C126.20685,0.232558245 130.009703,6.25249133 130.009703,13.9069775 C130.009703,21.3023241 125.807246,27.1694326 119.180558,27.1694326 C112.280804,27.1694326 108.524566,21.1494995 108.524566,13.6478405 C108.524566,6.09966676 112.327425,0.232558245 119.180558,0.232558245 M119.220516,5.18272696 C115.730684,5.18272696 115.510873,9.92690856 115.510873,12.8837227 C115.510873,15.8471771 115.46428,22.1727568 119.180558,22.1727568 C122.850214,22.1727568 123.023374,17.0697711 123.023374,13.9601299 C123.023374,11.9136229 122.936794,9.46843992 122.317411,7.52823775 C121.784611,5.84053485 120.725677,5.18272696 119.220516,5.18272696 M139.120575,26.6644492 L134.405302,26.6644492 C133.932439,26.6312303 133.552819,26.2524928 133.552819,25.7873763 L133.546163,1.5348834 C133.586123,1.08970033 133.979064,0.74418689 134.458583,0.74418689 L138.84752,0.74418689 C139.260436,0.764107636 139.600096,1.04319071 139.693339,1.4219282 L139.693339,5.12956695 L139.779914,5.12956695 C141.105257,1.8139538 142.96339,0.232558245 146.233446,0.232558245 C148.357983,0.232558245 150.429243,0.996678553 151.761242,3.08970022 C153,5.02989985 153,8.2923606 153,10.6378714 L153,25.900334 C152.946721,26.3255786 152.55378,26.6644492 152.087586,26.6644492 L147.339009,26.6644492 C146.906105,26.6312303 146.546466,26.312293 146.49985,25.900334 L146.49985,12.7308981 C146.49985,10.0797357 146.806209,6.19933386 143.53615,6.19933386 C142.383975,6.19933386 141.325033,6.97010202 140.798894,8.13953349 C140.132898,9.62126449 140.046318,11.0963476 140.046318,12.7308981 L140.046318,25.7873763 C140.039663,26.2724262 139.626739,26.6644492 139.12058,26.6644492 M76.0304676,15.0830568 L76.0304676,14.059802 C72.6072283,14.059802 68.9908542,14.7906983 68.9908542,18.8172743 C68.9908542,20.857141 70.0497909,22.2392049 71.8679691,22.2392049 C73.1999679,22.2392049 74.3921052,21.4219296 75.1446885,20.0930232 C76.077083,18.4584702 76.0304676,16.9235868 76.0304676,15.0830568 M80.8056802,26.5980037 C80.492661,26.8770741 80.0397778,26.8970075 79.6867989,26.7109639 C78.1150446,25.4086388 77.8353218,24.8039884 76.9695227,23.5614635 C74.3721253,26.2059806 72.5339723,26.9966746 69.164012,26.9966746 C65.1813348,26.9966746 62.0777834,24.5448488 62.0777834,19.6345546 C62.0777834,15.8006649 64.1623604,13.1893693 67.1260555,11.9136229 C69.696812,10.7840506 73.286548,10.584719 76.0304676,10.2724271 L76.0304676,9.66113133 C76.0304676,8.53820441 76.1170478,7.20930051 75.457708,6.23920577 C74.8782847,5.36877051 73.7727301,5.00996643 72.8003685,5.00996643 C70.9955144,5.00996643 69.3837928,5.93355409 68.9908542,7.84717499 C68.9109323,8.27242718 68.5979131,8.69103151 68.1716756,8.71096493 L63.5762817,8.21926717 C63.1900013,8.13289324 62.7637613,7.82059625 62.8703213,7.229239 C63.9292605,1.6744224 68.9575528,0 73.4597109,0 C75.7640638,0 78.7743794,0.61129574 80.5925576,2.35215865 C82.896918,4.49833779 82.6771346,7.36212508 82.6771346,10.4784066 L82.6771346,17.8405317 C82.6771346,20.0531589 83.5962175,21.0232537 84.4620165,22.2192715 C84.7683749,22.644516 84.8349753,23.1561447 84.4486949,23.4750819 C83.4829967,24.2790716 81.7647202,25.7740882 80.8189967,26.6112968 L80.8056802,26.597991 M13.9526842,15.0830568 L13.9526842,14.059802 C10.5294449,14.059802 6.9130708,14.7906983 6.9130708,18.8172743 C6.9130708,20.857141 7.97200747,22.2392049 9.79018572,22.2392049 C11.1221845,22.2392049 12.3143218,21.4219296 13.0669051,20.0930232 C13.9992996,18.4584702 13.9526842,16.9235868 13.9526842,15.0830568 M18.7278968,26.5980037 C18.4148776,26.8770741 17.9619944,26.8970075 17.6090155,26.7109639 C16.0372612,25.4086388 15.7575384,24.8039884 14.8917393,23.5614635 C12.2943419,26.2059806 10.4561889,26.9966746 7.08622858,26.9966746 C3.10355143,26.9966746 0,24.5448488 0,19.6345546 C0,15.8006649 2.08457699,13.1893693 5.04827207,11.9136229 C7.61902858,10.7840506 11.2087646,10.584719 13.9526842,10.2724271 L13.9526842,9.66113133 C13.9526842,8.53820441 14.0392644,7.20930051 13.3799246,6.23920577 C12.8005013,5.36877051 11.6949467,5.00996643 10.7225851,5.00996643 C8.91773096,5.00996643 7.30600937,5.93355409 6.9130708,7.84717499 C6.8331489,8.27242718 6.52012969,8.69103151 6.09389223,8.71096493 L1.49849826,8.21926717 C1.11221794,8.13289324 0.685977937,7.82059625 0.792537937,7.229239 C1.85147714,1.6744224 6.87976937,0 11.3819275,0 C13.6862804,0 16.696596,0.61129574 18.5147742,2.35215865 C20.8191346,4.49833779 20.5993512,7.36212508 20.5993512,10.4784066 L20.5993512,17.8405317 C20.5993512,20.0531589 21.5184341,21.0232537 22.3842331,22.2192715 C22.6905915,22.644516 22.7571919,23.1561447 22.3709115,23.4750819 C21.4052133,24.2790716 19.6869368,25.7740882 18.7412133,26.6112968 L18.7278968,26.597991" id="Combined-Shape"></path>
        </g>
    </g>
</svg>