<?xml version="1.0" encoding="UTF-8"?>
<svg width="153px" height="64px" viewBox="0 0 153 64" version="1.1" xmlns="http://www.w3.org/2000/svg" xmlns:xlink="http://www.w3.org/1999/xlink">
    <title>Artboard</title>
    <g id="Artboard" stroke="none" stroke-width="1" fill="none" fill-rule="evenodd">
        <g id="American_Express_logo_(2018)" transform="translate(5, 5,9899)" fill="#FFFFFF" fill-rule="nonzero">
            <path d="M51.881641,29.49253 L54.4384613,32.8256776 L57.0798286,29.49253 L143.580882,29.49253 L143.580529,32.26353 L135.539079,32.26439 C130.719941,32.26439 129.000022,34.7628373 128.93045,37.4037595 L128.928237,37.5724998 C128.928237,40.602131 130.772798,42.6200503 134.084847,42.6200503 L137.89514,42.6200503 C139.144468,42.6200503 139.682988,43.3363083 139.682988,44.0447768 C139.682988,44.7842163 139.142772,45.4584226 137.89514,45.4584226 L129.463203,45.4584226 L129.463203,49.1172766 L138.442542,49.1172766 C141.198982,49.1172766 142.89294,47.7841362 143.581605,45.8895241 L143.581826,41.712801 C142.926772,40.0375005 141.344341,38.9168452 138.643544,38.9168452 L134.652089,38.9168452 C133.615852,38.9168452 133.099859,38.1464059 133.099859,37.4477676 C133.099859,36.768057 133.517412,36.056283 134.873837,36.056283 L141.969748,36.056283 L143.580529,32.61153 L143.580529,32.26353 L143.743727,32.26439 L143.580529,32.61153 L143.581826,41.712801 C143.822263,42.3277178 143.937759,43.0173589 143.937759,43.753735 C143.937759,44.5115569 143.81983,45.2341341 143.581605,45.8895241 L143.580882,50.4477676 C143.580882,50.4477676 141.318726,51.9774939 138.702439,52 L90.8050207,52 L87.9223059,48.4520239 L87.9223059,52 L78.4758695,52 L78.4758695,45.943497 C78.4758695,45.943497 77.1854719,46.7889137 74.3957202,46.7889137 L71.1803836,46.7889137 L71.1803836,52 L56.8776813,52 L54.3245142,48.5953674 L51.7321456,52 L28.0505293,52 L28.0505293,29.49253 L51.881641,29.49253 Z M44.6815786,32.26439 L30.9332455,32.26439 L30.9332455,49.1172766 L44.6815786,49.1172766 L44.6815786,45.4584226 L35.1907941,45.4584226 L35.1907941,42.4648213 L44.4598312,42.4648213 L44.4598312,38.9168452 L35.1907941,38.9168452 L35.1907941,36.0341218 L44.6815786,36.0341218 L44.6815786,32.26439 Z M112.048414,32.26439 L98.3000799,32.26439 L98.3000799,49.1172766 L112.048414,49.1172766 L112.048414,45.4584226 L102.557629,45.4584226 L102.557629,42.4648213 L111.782318,42.4648213 L111.782318,38.9168452 L102.557629,38.9168452 L102.557629,36.0341218 L112.048414,36.0341218 L112.048414,32.26439 Z M50.3638537,32.26439 L45.0557776,32.26439 L51.9091555,40.7947696 L45.2151578,49.1172766 L50.4470095,49.1172766 L54.3137283,43.9269574 L58.2767645,49.1172766 L63.5840013,49.1172766 L56.8776813,40.6908333 L63.6409748,32.26439 L58.5407861,32.26439 L54.4453899,37.5378352 L50.3638537,32.26439 Z M128.280318,32.26439 L120.075667,32.26439 C115.153995,32.26439 113.464826,34.8702852 113.464826,37.5724998 C113.464826,40.602131 115.309385,42.6200503 118.621435,42.6200503 L122.431733,42.6200503 C123.681061,42.6200503 124.219571,43.3363083 124.219571,44.0447768 C124.219571,44.7842163 123.679358,45.4584226 122.431733,45.4584226 L113.99979,45.4584226 L113.99979,49.1172766 L122.979136,49.1172766 C126.689083,49.1172766 128.474347,46.7022809 128.474347,43.753735 C128.474347,41.0111502 126.872249,38.9168452 123.18013,38.9168452 L119.188678,38.9168452 C118.15244,38.9168452 117.636446,38.1464059 117.636446,37.4477676 C117.636446,36.768057 118.053999,36.056283 119.410425,36.056283 L126.506339,36.056283 L128.280318,32.26439 Z M73.0907048,32.0100538 L64,32.0100538 L64,49.0100538 L68.2238265,49.0100538 L68.2238265,43.6416281 L72.555957,43.6416281 C76.2215521,43.6416281 79,41.6334193 79,37.7279777 C79,34.4927266 76.8208488,32.0100538 73.0907048,32.0100538 Z M90.2671231,32.0100538 L81,32.0100538 L81,49.0100538 L85.1643836,49.0100538 L85.1643836,42.9705728 L86.9178075,42.9705728 L91.9109586,49.0100538 L97,49.0100538 L91.5205474,42.7468959 C93.769347,42.5531991 96.0890402,40.5834385 96.0890402,37.5252587 C96.0890402,33.9478771 93.3377509,32.0100538 90.2671231,32.0100538 Z M72.8439425,36.0100538 C74.1012635,36.0100538 75,36.7759491 75,38.0100538 C75,39.1694221 74.1058006,40.0100538 72.8295694,40.0100538 L68,40.0100538 L68,36.0100538 L72.8439425,36.0100538 Z M89.9491357,36.0100538 C91.1363651,36.0100538 92,37.0289017 92,38.0100538 C92,39.2723405 90.8810139,40.0100538 90.0132245,40.0100538 L85,40.0100538 L85,36.0100538 L89.9491357,36.0100538 Z" id="Combined-Shape"></path>
            <path d="M14.8890396,0 L17.9388521,7.018115 L17.9388521,0 L29.4918881,0 L31.307443,5.07248545 L33.0675622,0 L84.9287167,0 L84.9287167,2.55010425 C84.9287167,2.55010425 87.6550118,0 92.1355051,0 L108.962552,0.0588090927 L111.959715,6.98507441 L111.959715,0 L121.627898,0 L124.288867,3.97858171 L124.288867,0 L134.045748,0 L134.045748,22.5074556 L124.288867,22.5074556 L121.738772,18.5159825 L121.738772,22.5074556 L107.534069,22.5074556 L106.105586,18.9594795 L102.286882,18.9594795 L100.88165,22.5074556 L91.2485155,22.5074556 C87.7057858,22.5074556 85.337505,20.3980845 84.9767498,20.0560243 L84.9340961,20.0147956 L84.9287167,22.5074556 L70.4042684,22.5074556 L67.5215522,18.9594795 L67.5215522,22.5074556 L13.512221,22.5074556 L12.0847222,18.9594795 L8.27819618,18.9594795 L6.86078628,22.5074556 L0.221241259,22.5074556 L0.221,20.01 L4.72260729,20.0100538 L6.06102615,16.6058815 L13.841886,16.6058815 L15.1733705,20.0100538 L20,20.0100538 L12.7531198,3.01005377 L7.25381417,3.01005377 L0.221,19.492 L0.221,20.01 L0,20.0100538 L0.221,19.492 L0.221241259,12.5287799 L5.59525096,0 L14.8890396,0 Z M70.2671231,3.01005377 L61,3.01005377 L61,20.0100538 L65.1643836,20.0100538 L65.1643836,13.9705822 L66.9178075,13.9705822 L71.9109586,20.0100538 L77,20.0100538 L71.5205474,13.746905 C73.7693484,13.5532371 76.0890402,11.5834458 76.0890402,8.52527795 C76.0890402,4.94787873 73.3377509,3.01005377 70.2671231,3.01005377 Z M106.753121,3.01005377 L101.253813,3.01005377 L94,20.0100538 L98.7226074,20.0100538 L100.061026,16.6058815 L107.841887,16.6058815 L109.17337,20.0100538 L114,20.0100538 L106.753121,3.01005377 Z M41.7988638,2.77184557 L35.1464446,2.77184557 L31.3393797,13.6624215 L27.4389149,2.79675177 L20.7328679,2.77184557 L20.7328679,19.6247322 L24.9460671,19.6247322 L24.9460671,7.20681573 L29.4246,19.6247322 L33.1195847,19.6247322 L37.5856646,7.20681573 L37.5856646,19.6247322 L41.7988638,19.6247322 L41.7988638,2.77184557 Z M58.4299131,2.77184557 L44.6815786,2.77184557 L44.6815786,19.6247322 L58.4299131,19.6247322 L58.4299131,15.9658782 L48.9391272,15.9658782 L48.9391272,12.9722769 L58.2081657,12.9722769 L58.2081657,9.42430082 L48.9391272,9.42430082 L48.9391272,6.5415774 L58.4299131,6.5415774 L58.4299131,2.77184557 Z M82.1568763,2.77184557 L77.8549782,2.77184557 L77.8549782,19.6247322 L82.1568763,19.6247322 L82.1568763,2.77184557 Z M97.2356938,2.77184557 L92.5789999,2.77184557 C86.9053189,2.77184557 84.2080387,6.33107476 84.2080387,11.2675893 C84.2080387,16.0850917 86.9358601,19.6247322 91.4286857,19.6247322 L92.3572525,19.6247322 L94.1312302,15.9437026 L93.0224947,15.9437026 C90.339221,15.9437026 88.4766737,14.5729277 88.4766737,11.3091667 C88.4766737,8.56074706 90.105548,6.76331872 92.408749,6.76331872 L97.2356938,6.76331872 L97.2356938,2.77184557 Z M120.110315,2.77184557 L114.753731,2.77184557 L114.753731,19.6247322 L118.96693,19.6247322 L118.96693,8.75906248 L125.97969,19.6247322 L131.163033,19.6247322 L131.163033,2.77184557 L126.949834,2.77184557 L126.949834,13.3603422 L120.110315,2.77184557 Z M10.5036491,7.01005377 L13,13.0100538 L8,13.0100538 L10.5036491,7.01005377 Z M104.50365,7.01005377 L107,13.0100538 L102,13.0100538 L104.50365,7.01005377 Z M69.9491346,6.01005377 C71.1363638,6.01005377 72,7.02891374 72,8.01005377 C72,9.27232733 70.8810141,10.0100538 70.013225,10.0100538 L65,10.0100538 L65,6.01005377 L69.9491346,6.01005377 Z" id="Combined-Shape"></path>
        </g>
    </g>
</svg>