<?xml version="1.0" encoding="UTF-8"?>
<svg width="153px" height="64px" viewBox="0 0 153 64" version="1.1" xmlns="http://www.w3.org/2000/svg" xmlns:xlink="http://www.w3.org/1999/xlink">
    <title>Artboard</title>
    <g id="Artboard" stroke="none" stroke-width="1" fill="none" fill-rule="evenodd">
        <g id="New_Bloomberg_Logo" transform="translate(0, 18)" fill="#FFFFFF" fill-rule="nonzero">
            <path d="M0,0 L11.2168348,0 C13.3533747,0 14.9557797,0.534137005 16.1427463,1.42436535 C17.4484096,2.49263936 18.1605896,4.03570181 18.1605896,5.93485561 C18.1605896,8.13075219 17.2703646,9.49576898 15.4899147,10.3266488 L15.4899147,10.4453459 C17.8638479,11.2168771 19.2288596,13.3534251 19.2288596,15.905413 C19.2288596,18.3387038 18.2792863,20.2378576 16.7362296,21.4248288 C15.4305663,22.3744056 13.768813,22.7898455 11.5135764,22.7898455 L0,22.7898455 L0,0 Z M10.0892164,8.90228342 C11.2761831,8.90228342 12.1664081,8.2494493 12.1664081,6.88443251 C12.1664081,5.57876427 11.2761831,4.92593016 10.0298681,4.92593016 L6.17222653,4.92593016 L6.17222653,8.84293486 L10.0892164,8.84293486 L10.0892164,8.90228342 Z M10.6233514,17.7452183 C11.9883631,17.7452183 12.9972847,16.9143385 12.9972847,15.4306246 C12.9972847,13.8282136 11.9290147,13.1160309 10.6233514,13.1160309 L6.23157486,13.1160309 L6.23157486,17.8045668 L10.6233514,17.8045668 L10.6233514,17.7452183 Z" id="Shape"></path>
            <polygon id="Path" points="20.2377812 0 26.1132661 0 26.1132661 22.8491941 20.2377812 22.8491941"></polygon>
            <path d="M27.3002327,14.7184419 C27.3002327,9.55511753 30.6237393,6.11290128 35.7870442,6.11290128 C40.9503491,6.11290128 44.2145074,9.61446609 44.2145074,14.7184419 C44.2145074,19.8817663 40.9503491,23.3239825 35.7870442,23.3239825 C30.6237393,23.3239825 27.3002327,19.8817663 27.3002327,14.7184419 Z M38.3390225,14.7184419 C38.3390225,11.8697112 37.4487975,10.0892545 35.6683476,10.0892545 C33.8878976,10.0892545 33.0570209,11.8697112 33.0570209,14.7184419 C33.0570209,17.5671726 33.8878976,19.4069778 35.6683476,19.4069778 C37.4487975,19.3476293 38.3390225,17.5671726 38.3390225,14.7184419 Z" id="Shape"></path>
            <path d="M44.867339,14.7184419 C44.867339,9.55511753 48.1908456,6.11290128 53.3541505,6.11290128 C58.5174554,6.11290128 61.7222653,9.55511753 61.7222653,14.7184419 C61.7222653,19.8817663 58.4581071,23.3239825 53.2948022,23.3239825 C48.1908456,23.3239825 44.867339,19.8817663 44.867339,14.7184419 Z M55.9061288,14.7184419 C55.9061288,11.8697112 55.0159038,10.0892545 53.2354538,10.0892545 C51.4550039,10.0892545 50.6241272,11.8697112 50.6241272,14.7184419 C50.6241272,17.5671726 51.4550039,19.4069778 53.2354538,19.4069778 C55.0159038,19.3476293 55.9061288,17.5671726 55.9061288,14.7184419 Z" id="Shape"></path>
            <path d="M62.909232,6.52834117 L68.3692785,6.52834117 L68.3692785,8.96163197 L68.4879752,8.96163197 C69.5562452,7.06247818 71.0399535,6.05355272 73.4138867,6.05355272 C75.4910784,6.05355272 77.034135,7.06247818 77.8056633,8.84293486 L77.92436,8.84293486 C79.2300233,6.70638684 80.9511249,6.05355272 82.9689682,6.05355272 C86.7672614,6.05355272 88.3696664,8.84293486 88.3696664,12.5818939 L88.3696664,22.7898455 L82.6722265,22.7898455 L82.6722265,13.5908193 C82.6722265,11.9290598 82.1380915,10.8607858 80.7137316,10.8607858 C79.2893716,10.8607858 78.5771916,12.166454 78.5771916,13.9469107 L78.5771916,22.7898455 L72.8797517,22.7898455 L72.8797517,13.5908193 C72.8797517,11.9290598 72.3456168,10.8607858 70.9212568,10.8607858 C69.4968968,10.8607858 68.7847168,12.166454 68.7847168,13.9469107 L68.7847168,22.7898455 L62.909232,22.7898455 C62.909232,22.7898455 62.909232,6.52834117 62.909232,6.52834117 Z" id="Path"></path>
            <path d="M95.5508146,20.6532975 L95.4914663,20.6532975 L95.4914663,22.7898455 L90.0314197,22.7898455 L90.0314197,0 L95.7288596,0 L95.7288596,8.19010074 L95.8475562,8.19010074 C96.9158262,6.7657354 98.3995345,5.99420417 100.476726,5.99420417 C104.571761,5.99420417 106.945694,9.67381464 106.945694,14.5997448 C106.945694,20.1191605 104.393716,23.3239825 100.120636,23.3239825 C98.3401862,23.3239825 96.5003879,22.4931028 95.5508146,20.6532975 Z M101.070209,14.5403962 C101.070209,11.9290598 100.120636,10.2079516 98.3995345,10.2079516 C96.6190846,10.2079516 95.5508146,11.9290598 95.5508146,14.5403962 C95.5508146,17.1517327 96.6784329,18.8728408 98.3995345,18.8728408 C100.120636,18.8728408 101.070209,17.2110813 101.070209,14.5403962 Z" id="Shape"></path>
            <path d="M107.598526,14.6590934 C107.598526,9.55511753 110.981381,6.05355272 115.847944,6.05355272 C118.281226,6.05355272 120.121024,6.82508395 121.545384,8.19010074 C123.444531,10.029906 124.275407,12.8786367 124.216059,16.2021558 L113.295966,16.2021558 C113.533359,18.2200067 114.482933,19.2882807 116.204034,19.2882807 C117.212956,19.2882807 118.103181,18.8134923 118.459271,17.7452183 L123.978666,17.7452183 C123.029092,21.4841773 120.121024,23.3239825 116.025989,23.3239825 C110.981381,23.264634 107.598526,19.8224177 107.598526,14.6590934 Z M113.295966,12.9379852 L118.518619,12.9379852 C118.399922,10.9794829 117.331652,9.97055742 115.966641,9.97055742 C114.364236,9.91120887 113.474011,11.0388314 113.295966,12.9379852 Z" id="Shape"></path>
            <path d="M130.685027,9.31772331 L130.803724,9.31772331 C131.99069,7.06247818 133.533747,6.17224983 135.492242,6.17224983 C135.967029,6.17224983 136.26377,6.23159839 136.441815,6.3502955 L136.441815,11.3355742 L136.323119,11.3355742 C132.940264,10.7420887 130.981769,12.3444997 130.981769,16.0241101 L130.981769,22.8491941 L125.224981,22.8491941 L125.224981,6.52834117 L130.685027,6.52834117 L130.685027,9.31772331 Z" id="Path"></path>
            <path d="M137.035299,22.8491941 L142.554694,22.8491941 C142.792087,23.5613768 143.504267,24.2142109 144.869279,24.2142109 C146.709077,24.2142109 147.361908,23.0865883 147.361908,21.3654802 L147.361908,20.1785091 L147.243212,20.1785091 C146.352987,21.2467831 145.106672,22.0183143 143.326222,22.0183143 C139.82467,22.0183143 136.738557,19.4069778 136.738557,14.303002 C136.738557,9.61446609 139.231187,5.99420417 143.02948,5.99420417 C145.225369,5.99420417 146.531032,6.88443251 147.421257,8.2494493 L147.539953,8.2494493 L147.539953,6.46899261 L153,6.46899261 L153,20.593949 C153,23.2052854 152.109775,25.2231363 150.744763,26.4101075 C149.320403,27.6564271 147.30256,28.1905641 144.987975,28.1905641 C140.596199,28.2499127 137.569434,26.469456 137.035299,22.8491941 Z M147.599302,14.0656078 C147.599302,12.0477569 146.649728,10.3859973 144.987975,10.3859973 C143.38557,10.3859973 142.376649,11.8103627 142.376649,14.0656078 C142.376649,16.2615044 143.38557,17.8045668 144.987975,17.8045668 C146.59038,17.8045668 147.599302,16.2021558 147.599302,14.0656078 Z" id="Shape"></path>
        </g>
    </g>
</svg>