<?xml version="1.0" encoding="UTF-8"?>
<svg width="165px" height="60px" viewBox="0 0 165 60" version="1.1" xmlns="http://www.w3.org/2000/svg" xmlns:xlink="http://www.w3.org/1999/xlink">
    <title>Artboard</title>
    <g id="Artboard" stroke="none" stroke-width="1" fill="none" fill-rule="evenodd">
        <g id="Google_2015_logo" transform="translate(10, 6)" fill="#FFFFFF" fill-rule="nonzero">
            <path d="M62,25 C62,31.908927 56.6121348,37 50,37 C43.3878652,37 38,31.908927 38,25 C38,18.0423805 43.3878652,13 50,13 C56.6121348,13 62,18.0423805 62,25 Z M56.7469663,25 C56.7469663,20.6825969 53.6242697,17.7285843 50,17.7285843 C46.3757303,17.7285843 43.2530337,20.6825969 43.2530337,25 C43.2530337,29.2741208 46.3757303,32.2714157 50,32.2714157 C53.6242697,32.2714157 56.7469663,29.2687106 56.7469663,25 Z" id="Shape"></path>
            <path d="M88,25 C88,31.908927 82.6121348,37 76,37 C69.3878652,37 64,31.908927 64,25 C64,18.0477908 69.3878652,13 76,13 C82.6121348,13 88,18.0423805 88,25 Z M82.7469663,25 C82.7469663,20.6825969 79.6242697,17.7285843 76,17.7285843 C72.3757303,17.7285843 69.2530337,20.6825969 69.2530337,25 C69.2530337,29.2741208 72.3757303,32.2714157 76,32.2714157 C79.6242697,32.2714157 82.7469663,29.2687106 82.7469663,25 Z" id="Shape"></path>
            <path d="M113,13.7301884 L113,35.4287716 C113,44.3545072 107.774694,48 101.597366,48 C95.7824553,48 92.2826905,44.0820489 90.962841,40.8779387 L95.5498589,38.9543827 C96.366651,40.921532 98.3680621,43.2428772 101.591957,43.2428772 C105.546096,43.2428772 107.996472,40.7853028 107.996472,36.15896 L107.996472,34.4206757 L107.812559,34.4206757 C106.633349,35.8865016 104.361477,37.1670559 101.494591,37.1670559 C95.4957667,37.1670559 90,31.9031605 90,25.1298459 C90,18.3074887 95.4957667,13 101.494591,13 C104.356068,13 106.62794,14.2805543 107.812559,15.7027869 L107.996472,15.7027869 L107.996472,13.7356376 L113,13.7356376 L113,13.7301884 Z M108.369708,25.1298459 C108.369708,20.8740464 105.551505,17.762572 101.965193,17.762572 C98.3301976,17.762572 95.2848071,20.8740464 95.2848071,25.1298459 C95.2848071,29.342052 98.3301976,32.4099331 101.965193,32.4099331 C105.551505,32.4099331 108.369708,29.342052 108.369708,25.1298459 Z" id="Shape"></path>
            <polygon id="Path" points="121 1 121 36 116 36 116 1"></polygon>
            <path d="M140.708629,28.9549143 L144.774138,31.6816952 C143.46199,33.6348061 140.299927,37 134.836226,37 C128.060376,37 123,31.7303877 123,25 C123,17.8638413 128.103398,13 134.250061,13 C140.439746,13 143.467367,17.9558161 144.456857,20.6339044 L145,21.9972949 L129.055243,28.6411181 C130.275972,31.0486925 132.174285,32.276826 134.836226,32.276826 C137.503544,32.276826 139.353459,30.9567178 140.708629,28.9549143 Z M128.194818,24.6375113 L138.853337,20.1848512 C138.267172,18.6862038 136.5033,17.6420198 134.427524,17.6420198 C131.765583,17.6420198 128.060376,20.006312 128.194818,24.6375113 L128.194818,24.6375113 Z" id="Shape"></path>
            <path d="M18.737595,21.9915796 L18.737595,16.9368467 L35.7478766,16.9368467 C35.9141708,17.8177991 36,18.8599013 36,19.9879501 C36,23.7803426 34.9646848,28.4698026 31.6280733,31.8109756 C28.3826553,35.195122 24.2360304,37 18.7429593,37 C8.56146625,37 0,28.6954123 0,18.5 C0,8.30458769 8.56146625,0 18.7429593,0 C24.3755029,0 28.3880197,2.21312427 31.4027716,5.09770616 L27.8408583,8.66448897 C25.6790344,6.63400116 22.7501118,5.05473287 18.737595,5.05473287 C11.3026375,5.05473287 5.48770675,11.054878 5.48770675,18.5 C5.48770675,25.945122 11.3026375,31.9452671 18.737595,31.9452671 C23.5601252,31.9452671 26.3066607,30.0060976 28.06616,28.2441928 C29.4930711,26.815331 30.4318283,24.7740999 30.8019669,21.9862079 L18.737595,21.9915796 Z" id="Path"></path>
        </g>
    </g>
</svg>