<?xml version="1.0" encoding="UTF-8"?>
<svg width="153px" height="41px" viewBox="0 0 153 41" version="1.1" xmlns="http://www.w3.org/2000/svg" xmlns:xlink="http://www.w3.org/1999/xlink">
    <title>Artboard</title>
    <defs>
        <path d="M0.240963855,10.248227 L-8.32667268e-17,12.4184397 L0.240963855,14.5886525 C0.240963855,14.7092199 0.361445783,14.7092199 0.361445783,14.7092199 C0.481927711,14.7092199 0.481927711,14.5886525 0.481927711,14.5886525 L0.843373494,12.4184397 L0.481927711,10.248227 C0.481927711,10.1276596 0.361445783,10.1276596 0.361445783,10.1276596 C0.361445783,10.1276596 0.240963855,10.1276596 0.240963855,10.248227 M1.68674699,8.92198582 L1.3253012,12.4184397 L1.68674699,15.9148936 C1.68674699,16.035461 1.80722892,16.035461 1.80722892,16.035461 C1.92771084,16.035461 1.92771084,15.9148936 1.92771084,15.9148936 L2.40963855,12.4184397 L1.92771084,8.92198582 C1.92771084,8.80141844 1.80722892,8.80141844 1.80722892,8.80141844 C1.80722892,8.80141844 1.80722892,8.80141844 1.80722892,8.80141844 C1.80722892,8.80141844 1.68674699,8.92198582 1.68674699,8.92198582 M6.26506024,8.43971631 L6.02409639,12.4184397 L6.26506024,16.6382979 C6.26506024,16.7588652 6.38554217,16.8794326 6.5060241,16.8794326 C6.62650602,16.8794326 6.74698795,16.7588652 6.74698795,16.6382979 L7.22891566,12.4184397 L6.86746988,8.43971631 C6.86746988,8.31914894 6.74698795,8.19858156 6.62650602,8.19858156 C6.38554217,8.19858156 6.26506024,8.31914894 6.26506024,8.43971631 M3.25301205,8.19858156 L2.89156627,12.4184397 L3.25301205,16.3971631 C3.25301205,16.5177305 3.37349398,16.6382979 3.4939759,16.6382979 C3.4939759,16.6382979 3.61445783,16.5177305 3.61445783,16.3971631 L3.97590361,12.4184397 L3.61445783,8.19858156 C3.61445783,8.07801418 3.4939759,7.95744681 3.37349398,7.95744681 C3.37349398,8.07801418 3.25301205,8.07801418 3.25301205,8.19858156 M4.69879518,8.07801418 L4.3373494,12.4184397 L4.69879518,16.5177305 C4.69879518,16.6382979 4.81927711,16.7588652 4.93975904,16.7588652 C5.06024096,16.7588652 5.18072289,16.6382979 5.18072289,16.5177305 L5.54216867,12.4184397 L5.18072289,8.07801418 C5.18072289,7.95744681 5.06024096,7.83687943 4.93975904,7.83687943 C4.81927711,7.83687943 4.81927711,7.95744681 4.69879518,8.07801418 M7.8313253,5.90780142 L7.46987952,12.4184397 L7.8313253,16.6382979 C7.8313253,16.7588652 7.95180723,16.8794326 8.07228916,16.8794326 C8.31325301,16.8794326 8.43373494,16.7588652 8.43373494,16.6382979 L8.79518072,12.4184397 L8.43373494,5.90780142 C8.43373494,5.78723404 8.31325301,5.66666667 8.19277108,5.66666667 C7.95180723,5.66666667 7.8313253,5.78723404 7.8313253,5.90780142 M9.39759036,4.46099291 L9.15662651,12.4184397 L9.39759036,16.6382979 C9.39759036,16.8794326 9.51807229,17 9.75903614,17 C9.87951807,17 10.1204819,16.8794326 10.1204819,16.6382979 L10.4819277,12.4184397 L10.1204819,4.46099291 C10.1204819,4.21985816 10,4.09929078 9.75903614,4.09929078 C9.51807229,4.09929078 9.39759036,4.21985816 9.39759036,4.46099291 M83.7349398,3.9787234 L83.7349398,8.56028369 L83.7349398,10.9716312 C83.6144578,10.7304965 83.253012,10.1276596 83.0120482,9.76595745 L79.1566265,3.9787234 L77.1084337,3.9787234 L77.1084337,14.9503546 L79.2771084,14.9503546 L79.2771084,10.1276596 L79.2771084,7.71631206 C79.3975904,7.95744681 79.7590361,8.56028369 80,8.92198582 L83.9759036,14.9503546 L85.9036145,14.9503546 L85.9036145,3.9787234 L83.7349398,3.9787234 Z M90.9638554,6.14893617 L92.1686747,6.14893617 C94.4578313,6.14893617 95.4216867,7.23404255 95.4216867,9.5248227 C95.4216867,11.5744681 94.3373494,12.9007092 92.0481928,12.9007092 L90.9638554,12.9007092 L90.9638554,6.14893617 Z M88.7951807,14.9503546 L92.0481928,14.9503546 C94.8192771,14.9503546 97.7108434,13.3829787 97.7108434,9.5248227 C97.7108434,5.54609929 95.4216867,4.09929078 92.2891566,4.09929078 L88.7951807,4.09929078 L88.7951807,3.9787234 L88.7951807,14.9503546 Z M110.361446,3.9787234 L110.361446,14.9503546 L116.987952,14.9503546 L116.987952,12.7801418 L112.650602,12.7801418 L112.650602,3.9787234 L110.361446,3.9787234 Z M143.373494,6.14893617 L144.578313,6.14893617 C146.86747,6.14893617 147.831325,7.23404255 147.831325,9.5248227 C147.831325,11.5744681 146.746988,12.9007092 144.457831,12.9007092 L143.373494,12.9007092 L143.373494,6.14893617 Z M141.204819,14.9503546 L144.457831,14.9503546 C146.86747,14.9503546 149.39759,13.7446809 150,10.8510638 L150,8.07801418 C149.518072,5.18439716 147.46988,4.09929078 144.698795,4.09929078 L141.204819,4.09929078 L141.204819,3.9787234 L141.204819,14.9503546 L141.204819,14.9503546 Z M43.9759036,7.11347518 C43.9759036,9.28368794 45.4216867,9.88652482 47.3493976,10.3687943 C49.3975904,10.8510638 49.7590361,11.0921986 49.7590361,11.8156028 C49.7590361,12.6595745 49.1566265,13.0212766 47.8313253,13.0212766 C46.746988,13.0212766 45.7831325,12.6595745 45.060241,11.8156028 L43.4939759,13.2624113 C44.3373494,14.4680851 45.9036145,15.3120567 47.7108434,15.3120567 C50.7228916,15.3120567 52.0481928,13.8652482 52.0481928,11.8156028 C52.0481928,9.40425532 50.1204819,8.80141844 48.4337349,8.43971631 C46.746988,8.07801418 46.2650602,7.83687943 46.2650602,7.11347518 C46.2650602,6.63120567 46.626506,6.14893617 47.8313253,6.14893617 C48.7951807,6.14893617 49.6385542,6.5106383 50.3614458,7.23404255 L51.9277108,5.66666667 C50.8433735,4.58156028 49.6385542,3.9787234 47.9518072,3.9787234 C47.8313253,3.9787234 47.7108434,3.9787234 47.5903614,3.9787234 C45.5421687,3.9787234 43.9759036,5.18439716 43.9759036,7.11347518 M56.0240964,9.5248227 C56.0240964,7.59574468 56.746988,6.02836879 58.5542169,6.02836879 C60.3614458,6.02836879 61.0843373,7.59574468 61.0843373,9.5248227 C61.0843373,11.4539007 60.3614458,13.0212766 58.5542169,13.0212766 C56.746988,13.0212766 56.0240964,11.4539007 56.0240964,9.5248227 M53.7349398,9.5248227 C53.7349398,12.9007092 55.5421687,15.1914894 58.4337349,15.1914894 C61.4457831,15.1914894 63.253012,12.9007092 63.253012,9.5248227 C63.253012,6.14893617 61.4457831,3.85815603 58.4337349,3.85815603 C55.5421687,3.85815603 53.7349398,6.14893617 53.7349398,9.5248227 M72.1686747,3.85815603 L72.1686747,3.85815603 L72.1686747,10.1276596 C72.1686747,11.9361702 71.3253012,13.0212766 69.8795181,13.0212766 C68.4337349,13.0212766 67.5903614,11.9361702 67.5903614,10.1276596 L67.5903614,3.9787234 L65.4216867,3.9787234 L65.4216867,10.1276596 C65.4216867,13.2624113 67.2289157,15.070922 69.8795181,15.070922 C72.6506024,15.070922 74.3373494,13.2624113 74.3373494,10.0070922 L74.3373494,3.85815603 L72.1686747,3.85815603 Z M99.5180723,9.5248227 C99.5180723,13.0212766 101.445783,15.1914894 104.337349,15.1914894 C106.385542,15.1914894 107.590361,14.2269504 108.433735,12.6595745 L106.626506,11.5744681 C106.024096,12.5390071 105.421687,13.0212766 104.457831,13.0212766 C102.771084,13.0212766 101.807229,11.5744681 101.807229,9.5248227 C101.807229,7.4751773 102.771084,6.02836879 104.337349,6.02836879 C105.301205,6.02836879 105.903614,6.5106383 106.385542,7.23404255 L108.433735,6.26950355 C107.710843,4.82269504 106.506024,3.85815603 104.457831,3.85815603 C101.566265,3.85815603 99.5180723,6.14893617 99.5180723,9.5248227 M120.240964,9.5248227 C120.240964,7.59574468 120.963855,6.02836879 122.771084,6.02836879 C124.578313,6.02836879 125.301205,7.59574468 125.301205,9.5248227 C125.301205,11.4539007 124.578313,13.0212766 122.771084,13.0212766 C120.963855,13.0212766 120.240964,11.4539007 120.240964,9.5248227 M117.951807,9.5248227 C117.951807,12.9007092 119.759036,15.1914894 122.650602,15.1914894 C125.662651,15.1914894 127.349398,12.9007092 127.349398,9.5248227 C127.349398,6.14893617 125.542169,3.85815603 122.650602,3.85815603 C119.759036,3.85815603 117.951807,6.14893617 117.951807,9.5248227 M136.26506,3.85815603 L136.26506,3.85815603 L136.26506,10.1276596 C136.26506,11.9361702 135.421687,13.0212766 133.975904,13.0212766 C132.53012,13.0212766 131.686747,11.9361702 131.686747,10.1276596 L131.686747,3.9787234 L129.518072,3.9787234 L129.518072,10.1276596 C129.518072,13.2624113 131.325301,15.070922 133.975904,15.070922 C136.746988,15.070922 138.433735,13.2624113 138.433735,10.0070922 L138.433735,3.85815603 L136.26506,3.85815603 Z M15.7831325,4.09929078 L15.5421687,12.4184397 L15.7831325,16.3971631 C15.7831325,16.6382979 16.0240964,16.8794326 16.2650602,16.8794326 C16.5060241,16.8794326 16.746988,16.6382979 16.746988,16.3971631 L16.9879518,12.4184397 L16.746988,3.9787234 C16.746988,3.73758865 16.5060241,3.4964539 16.2650602,3.4964539 C15.9036145,3.61702128 15.7831325,3.73758865 15.7831325,4.09929078 M10.9638554,3.73758865 L10.7228916,12.4184397 L10.9638554,16.5177305 C10.9638554,16.7588652 11.0843373,16.8794326 11.3253012,16.8794326 C11.5662651,16.8794326 11.686747,16.7588652 11.686747,16.5177305 L11.9277108,12.4184397 L11.686747,3.73758865 C11.686747,3.4964539 11.5662651,3.37588652 11.3253012,3.37588652 C11.0843373,3.37588652 10.9638554,3.61702128 10.9638554,3.73758865 M14.0963855,3.73758865 L13.8554217,12.4184397 L14.0963855,16.5177305 C14.0963855,16.7588652 14.3373494,17 14.5783133,17 C14.8192771,17 15.060241,16.7588652 15.060241,16.5177305 L15.3012048,12.4184397 L15.060241,3.73758865 C15.060241,3.4964539 14.8192771,3.25531915 14.5783133,3.25531915 C14.3373494,3.25531915 14.0963855,3.4964539 14.0963855,3.73758865 M12.5301205,3.4964539 L12.2891566,12.4184397 L12.5301205,16.5177305 C12.5301205,16.7588652 12.6506024,16.8794326 12.8915663,16.8794326 C13.1325301,16.8794326 13.253012,16.7588652 13.253012,16.5177305 L13.4939759,12.4184397 L13.253012,3.4964539 C13.253012,3.25531915 13.0120482,3.13475177 12.8915663,3.13475177 C12.7710843,3.13475177 12.5301205,3.25531915 12.5301205,3.4964539 M17.3493976,2.41134752 L17.1084337,12.4184397 L17.3493976,16.3971631 C17.3493976,16.6382979 17.5903614,16.8794326 17.8313253,16.8794326 C18.0722892,16.8794326 18.313253,16.6382979 18.313253,16.3971631 L18.5542169,12.4184397 L18.313253,2.41134752 C18.313253,2.17021277 18.0722892,1.92907801 17.8313253,1.92907801 C17.5903614,1.92907801 17.3493976,2.17021277 17.3493976,2.41134752 M19.0361446,1.56737589 L18.7951807,12.4184397 L19.0361446,16.3971631 C19.0361446,16.6382979 19.2771084,16.8794326 19.5180723,16.8794326 C19.7590361,16.8794326 20,16.6382979 20,16.3971631 L20.2409639,12.4184397 L20,1.56737589 C20,1.32624113 19.7590361,1.08510638 19.5180723,1.08510638 C19.5180723,1.08510638 19.3975904,1.08510638 19.3975904,1.08510638 C19.1566265,1.08510638 19.0361446,1.32624113 19.0361446,1.56737589 M20.9638554,0.482269504 C20.6024096,0.602836879 20.4819277,0.723404255 20.4819277,1.08510638 L20.4819277,16.3971631 C20.4819277,16.6382979 20.7228916,16.8794326 20.9638554,17 L34.3373494,17 C36.9879518,17 39.1566265,14.8297872 39.1566265,12.177305 C39.1566265,9.5248227 36.9879518,7.35460993 34.3373494,7.35460993 C33.7349398,7.35460993 33.0120482,7.4751773 32.5301205,7.71631206 C32.1686747,3.37588652 28.5542169,0 24.0963855,0 C23.8554217,0 23.7349398,0 23.4939759,0 C22.6506024,0 21.8072289,0.241134752 20.9638554,0.482269504" id="path-1"></path>
    </defs>
    <g id="Artboard" stroke="none" stroke-width="1" fill="none" fill-rule="evenodd">
        <g id="Soundcloud_logo" transform="translate(2, 12)">
            <mask id="mask-2" fill="white">
                <use xlink:href="#path-1"></use>
            </mask>
            <g id="SVGID_1_"></g>
            <rect id="Rectangle" fill="#FFFFFF" fill-rule="nonzero" mask="url(#mask-2)" x="0" y="0" width="150" height="17"></rect>
        </g>
    </g>
</svg>