<?xml version="1.0" encoding="UTF-8"?>
<svg width="153px" height="64px" viewBox="0 0 153 64" version="1.1" xmlns="http://www.w3.org/2000/svg" xmlns:xlink="http://www.w3.org/1999/xlink">
    <title>Artboard</title>
    <g id="Artboard" stroke="none" stroke-width="1" fill="none" fill-rule="evenodd">
        <g id="Stripe_Logo,_revised_2016" transform="translate(28, 12)" fill="#FFFFFF">
            <path d="M96,20.5962596 C96,13.5555556 92.6621803,8 86.282638,8 C79.8761777,8 76,13.5555556 76,20.5412541 C76,28.819582 80.5760431,33 87.1440108,33 C90.3472409,33 92.769852,32.2574257 94.6002692,31.2123212 L94.6002692,25.7117712 C92.769852,26.6468647 90.6702557,27.2244224 88.0053836,27.2244224 C85.3943472,27.2244224 83.0794078,26.2893289 82.7833109,23.0440044 L95.9461642,23.0440044 C95.9461642,22.6864686 96,21.2563256 96,20.5962596 Z M82.7025572,17.9834983 C82.7025572,14.8756876 84.5598923,13.5830583 86.2557201,13.5830583 C87.897712,13.5830583 89.6473755,14.8756876 89.6473755,17.9834983 L82.7025572,17.9834983 Z" id="Shape"></path>
            <path d="M65.7,8 C63.0272727,8 61.3090909,9.24534687 60.3545455,10.1116751 L60,8.43316413 L54,8.43316413 L54,40 L60.8181818,38.5651438 L60.8454545,30.9035533 C61.8272727,31.607445 63.2727273,32.6091371 65.6727273,32.6091371 C70.5545455,32.6091371 75,28.7106599 75,20.1285956 C74.9727273,12.2774958 70.4727273,8 65.7,8 Z M64.0636364,26.6531303 C62.4545455,26.6531303 61.5,26.0846024 60.8454545,25.3807107 L60.8181818,15.3367174 C61.5272727,14.5516074 62.5090909,14.0101523 64.0636364,14.0101523 C66.5454545,14.0101523 68.2636364,16.7715736 68.2636364,20.3181049 C68.2636364,23.9458545 66.5727273,26.6531303 64.0636364,26.6531303 Z" id="Shape"></path>
            <polygon id="Path" points="46 7 52 5.52918288 52 0 46 1.44357977"></polygon>
            <rect id="Rectangle" x="46" y="9" width="6" height="24"></rect>
            <path d="M38.3272727,11.2862237 L37.8909091,9.28020691 L32,9.28020691 L32,33 L38.8181818,33 L38.8181818,16.9247574 C40.4272727,14.8374156 43.1545455,15.2169323 44,15.515124 L44,9.28020691 C43.1272727,8.9549069 39.9363636,8.35852353 38.3272727,11.2862237 Z" id="Path"></path>
            <path d="M25.7741935,3 L19.0276498,4.40540541 L19,26.0540541 C19,30.0540541 22.0691244,33 26.1612903,33 C28.4285714,33 30.0875576,32.5945946 31,32.1081081 L31,26.6216216 C30.1152074,26.972973 25.7465438,28.2162162 25.7465438,24.2162162 L25.7465438,14.6216216 L31,14.6216216 L31,8.86486486 L25.7465438,8.86486486 L25.7741935,3 Z" id="Path"></path>
            <path d="M6.77322835,15.4450549 C6.77322835,14.3736264 7.62992126,13.9615385 9.0488189,13.9615385 C11.0834646,13.9615385 13.6535433,14.5934066 15.688189,15.7197802 L15.688189,9.26373626 C13.4661417,8.35714286 11.2708661,8 9.0488189,8 C3.61417323,8 0,10.9120879 0,15.7747253 C0,23.3571429 10.1732283,22.1483516 10.1732283,25.4175824 C10.1732283,26.6813187 9.1023622,27.0934066 7.60314961,27.0934066 C5.38110236,27.0934066 2.54330709,26.1593407 0.294488189,24.8956044 L0.294488189,31.4340659 C2.78425197,32.532967 5.3007874,33 7.60314961,33 C13.1716535,33 17,30.1703297 17,25.2527473 C16.9732283,17.0659341 6.77322835,18.521978 6.77322835,15.4450549 Z" id="Path"></path>
        </g>
    </g>
</svg>